# xmcd
# 
# Track frame offsets:
#     150
#     14250
#     36750
#     65175
#     88050
#     104175
#     133650
#     177075
#     206775
#     227850
#     259200
#     284025
#     301200
#     332775
# 
# Disc length: 4612
# 
# Revision: 0
# Processed by: cddbd v1.5.2PL0 Copyright (c) Steve Scherf et al.
# Submitted via: fre:ac v1.0.31
# 
DISCID=db12020e
DTITLE=Derek and The Dominos - "Layla" D.J. Copy Monaural (Clockwise)
DYEAR=0
DGENRE=
TTITLE0=I Looked Away
TTITLE1=Bell Bottom Blues
TTITLE2=Keep On Growing
TTITLE3=Nobody Knows You When You're Down And Out
TTITLE4=I Am Yours
TTITLE5=Anyday
TTITLE6=Key To The Highway
TTITLE7=Tell The Truth
TTITLE8=Why Does Love Got To Be So Sad?
TTITLE9=Have You Ever Loved A Woman
TTITLE10=Little Wing
TTITLE11=It's Too Late
TTITLE12=Layla
TTITLE13=Thorn Tree In The Garden
EXTD=
EXTT0=I Looked Away
EXTT1=Bell Bottom Blues
EXTT2=
EXTT3=
EXTT4=
EXTT5=
EXTT6=
EXTT7=
EXTT8=
EXTT9=
EXTT10=
EXTT11=
EXTT12=
EXTT13=
PLAYORDER=
